<mxfile host="app.diagrams.net" modified="2022-07-04T01:04:43.342Z" agent="5.0 (Windows NT 10.0; Win64; x64) AppleWebKit/537.36 (KHTML, like Gecko) Chrome/102.0.0.0 Safari/537.36" etag="6BhtjBnhh7qX234My3f7" version="20.0.4" type="github">
  <diagram id="fS_jw96vKjEwGfNcRvxQ" name="Page-1">
    <mxGraphModel dx="1422" dy="762" grid="1" gridSize="10" guides="1" tooltips="1" connect="1" arrows="1" fold="1" page="1" pageScale="1" pageWidth="827" pageHeight="1169" math="0" shadow="0">
      <root>
        <mxCell id="0" />
        <mxCell id="1" parent="0" />
        <mxCell id="qtY3qh8mTVoA4nLyecrv-2" value="&amp;nbsp;Node #3" style="rounded=0;whiteSpace=wrap;html=1;align=left;verticalAlign=top;" vertex="1" parent="1">
          <mxGeometry x="70" y="520" width="440" height="170" as="geometry" />
        </mxCell>
        <mxCell id="qtY3qh8mTVoA4nLyecrv-3" value="&amp;nbsp;Node #1&amp;nbsp;&lt;br&gt;" style="rounded=0;whiteSpace=wrap;html=1;align=left;verticalAlign=top;" vertex="1" parent="1">
          <mxGeometry x="80" y="40" width="990" height="270" as="geometry" />
        </mxCell>
        <mxCell id="qtY3qh8mTVoA4nLyecrv-4" value="&amp;nbsp;Node #2" style="rounded=0;whiteSpace=wrap;html=1;align=left;verticalAlign=top;" vertex="1" parent="1">
          <mxGeometry x="70" y="330" width="440" height="170" as="geometry" />
        </mxCell>
        <mxCell id="B3l2NW9NCI1qrA5bAnzD-1" value="&amp;nbsp;Lustre Client" style="rounded=0;whiteSpace=wrap;html=1;align=left;verticalAlign=top;fillColor=#d5e8d4;strokeColor=#82b366;" vertex="1" parent="1">
          <mxGeometry x="110" y="140" width="190" height="140" as="geometry" />
        </mxCell>
        <mxCell id="ozoCwilBdho515e5NpQp-2" value="&amp;nbsp;Management Server(MGS)" style="rounded=0;whiteSpace=wrap;html=1;align=left;verticalAlign=top;fillColor=#dae8fc;strokeColor=#6c8ebf;" vertex="1" parent="1">
          <mxGeometry x="480" y="140" width="190" height="140" as="geometry" />
        </mxCell>
        <mxCell id="ozoCwilBdho515e5NpQp-3" value="&amp;nbsp;Object Storage Servers(OSS) #1" style="rounded=0;whiteSpace=wrap;html=1;align=left;verticalAlign=top;fillColor=#dae8fc;strokeColor=#6c8ebf;" vertex="1" parent="1">
          <mxGeometry x="800" y="140" width="190" height="140" as="geometry" />
        </mxCell>
      </root>
    </mxGraphModel>
  </diagram>
</mxfile>
